<?xml version="1.0" encoding="UTF-8" standalone="no"?>
<!-- Generator: Adobe Illustrator 17.0.1, SVG Export Plug-In . SVG Version: 6.00 Build 0) -->
 
<svg
xmlns:dc="http://purl.org/dc/elements/1.1/"
xmlns:cc="http://creativecommons.org/ns#"
xmlns:rdf="http://www.w3.org/1999/02/22-rdf-syntax-ns#"
xmlns:svg="http://www.w3.org/2000/svg"
xmlns="http://www.w3.org/2000/svg"
xmlns:xlink="http://www.w3.org/1999/xlink"
xmlns:sodipodi="http://sodipodi.sourceforge.net/DTD/sodipodi-0.dtd"
xmlns:inkscape="http://www.inkscape.org/namespaces/inkscape"
version="1.1"
x="0px"
y="0px"
width="86px"
height="86px"
viewBox="0 0 86 86"
enable-background="new 0 0 86 86"
xml:spaaace="preserve"
id="svg3066"
inkscape:version="0.48.5 r10040"
sodipodi:docname="sound-for-fish.svg"
inkscape:export-filename="/home/julius/Downloads/gist/8a9e2c6895bd587b059c/sound-for-fish.png"
inkscape:export-xdpi="90"
inkscape:export-ydpi="90"><metadata
id="metadata3126"><rdf:RDF><cc:Work
rdf:about=""><dc:format>image/svg+xml</dc:format><dc:type
rdf:resource="http://purl.org/dc/dcmitype/StillImage" /><dc:title></dc:title></cc:Work></rdf:RDF></metadata><defs
id="defs3124"><radialGradient
inkscape:collect="always"
xlink:href="#SVGID_2_"
id="radialGradient3896"
gradientUnits="userSpaceOnUse"
gradientTransform="matrix(0,0.953,-0.9513,0,374.8925,-416.2066)"
cx="481.8537"
cy="348.97711"
r="44.790298" /></defs><sodipodi:namedview
pagecolor="#ffffff"
bordercolor="#666666"
borderopacity="1"
objecttolerance="10"
gridtolerance="10"
guidetolerance="10"
inkscape:pageopacity="0"
inkscape:pageshadow="2"
inkscape:window-width="1918"
inkscape:window-height="1056"
id="namedview3122"
showgrid="false"
inkscape:zoom="7.1615117"
inkscape:cx="-0.44638982"
inkscape:cy="40.192864"
inkscape:window-x="0"
inkscape:window-y="22"
inkscape:window-maximized="0"
inkscape:current-layer="Layer_1" /><g
id="Layer_2"
display="none" /><g
id="Layer_1"><radialGradient
id="SVGID_1_"
cx="481.8537"
cy="348.9771"
r="44.7903"
gradientTransform="matrix(0 0.953 -0.9513 0 374.8925 -416.2066)"
gradientUnits="userSpaceOnUse"><stop
offset="0"
style="stop-color:#ff5f1a;stop-opacity:0;"
id="stop3071" /><stop
offset="1"
style="stop-color:#ff5f1a;stop-opacity:1;"
id="stop3073" /></radialGradient><path
fill="url(#SVGID_1_)"
d="M85.521,84.261V43c0-23.574-19.078-42.683-42.611-42.683H1.72c-0.784,0-1.42,0.637-1.42,1.423V43 c0,23.574,19.078,42.684,42.611,42.684h41.19C84.885,85.684,85.521,85.046,85.521,84.261z"
id="path3075"
style="fill-opacity:1.0;fill:url(#radialGradient3896)" /><g
opacity="0.6"
id="g3077" /><g
opacity="0.5"
id="g3095" /><linearGradient
id="SVGID_2_"
gradientUnits="userSpaceOnUse"
x1="28.1058"
y1="27.843"
x2="57.9244"
y2="57.6616"><stop
offset="0"
style="stop-color:#ff5f1a;stop-opacity:0.47368422;"
id="stop3114" /><stop
offset="1"
style="stop-color:#ff5f1a;stop-opacity:1;"
id="stop3116" /></linearGradient><g
id="g3962"
transform="matrix(0,0.43204615,-0.43204615,0,64.353881,41.012504)"
style="fill:#000000"><path
id="path3950"
d="m 91.08,53.33 c -0.33,-0.95 -0.521,-2.41 -0.521,-3.9 0,-1.5 0.19,-2.96 0.521,-3.91 l 2.13,-6.14 c 1.34,-3.88 1.04,-9.4 -2.12,-12.45 -1.38,-1.33 -3.27,-2.05 -5.31,-2.05 -2.65,0 -5.37,1.17 -7.48,3.22 l -5.31,5.11 C 65.639,28.14 55.429,24.66 47.34,24.66 18.45,24.66 6.76,46.56 6.28,47.5 l -1,1.93 1,1.93 c 0.479,0.93 12.17,22.83 41.06,22.83 8.09,0 18.3,-3.48 25.65,-8.55 l 5.319,5.12 c 2.101,2.04 4.82,3.21 7.471,3.21 2.04,0 3.93,-0.72 5.3,-2.03 3.17,-3.06 3.47,-8.59 2.13,-12.46 l -2.13,-6.15 z m -3.96,1.37 2.13,6.14 c 1,2.91 0.52,6.54 -1.07,8.07 -0.62,0.59 -1.47,0.87 -2.399,0.87 -1.49,0 -3.2,-0.7 -4.57,-2.03 l -7.9,-7.63 C 66.41,66.05 55.06,70 47.34,70 20.67,70 10,49.43 10,49.43 c 0,0 10.67,-20.58 37.34,-20.58 7.72,0 19.07,3.95 25.97,9.88 l 7.9,-7.63 c 1.37,-1.32 3.08,-2.03 4.57,-2.03 0.93,0 1.779,0.28 2.399,0.87 1.59,1.54 2.07,5.17 1.07,8.07 l -2.13,6.14 c -0.5,1.45 -0.75,3.36 -0.75,5.28 0.001,1.91 0.251,3.82 0.751,5.27 z"
inkscape:connector-curvature="0"
style="fill:#000000" /><path
id="path3952"
d="m 35.75,36.88 c -6.92,0 -12.55,5.63 -12.55,12.55 0,6.91 5.63,12.54 12.55,12.54 6.91,0 12.54,-5.63 12.54,-12.54 0,-6.92 -5.63,-12.55 -12.54,-12.55 z m 0,21.09 c -4.72,0 -8.55,-3.83 -8.55,-8.54 0,-4.72 3.83,-8.55 8.55,-8.55 4.71,0 8.54,3.83 8.54,8.55 0,4.71 -3.83,8.54 -8.54,8.54 z"
inkscape:connector-curvature="0"
style="fill:#000000" /><path
id="path3954"
d="m 40.05,49.43 c 0,2.37 -1.93,4.3 -4.3,4.3 -2.38,0 -4.31,-1.93 -4.31,-4.3 0,-2.38 1.93,-4.3 4.31,-4.3 2.37,0 4.3,1.92 4.3,4.3 z"
inkscape:connector-curvature="0"
style="fill:#000000" /></g><g
id="g4039"
transform="matrix(0.74268,0,0,0.74268,9.5794,4.049752)"
style="fill:#000000"><path
id="path4023"
d="m 76.696,43.716 c -1.655,-0.281 -3.379,-0.436 -5.147,-0.436 -1.636,0 -2.964,1.328 -2.964,2.963 v 33.683 c 0,1.635 1.328,2.964 2.964,2.964 1.769,0 3.492,-0.154 5.147,-0.436 V 43.716 z"
inkscape:connector-curvature="0"
style="fill:#000000" /><path
id="path4025"
d="M 82.148,45.203 V 80.967 C 89.768,78.035 95,72.051 95,65.157 V 61.011 C 95,54.119 89.768,48.134 82.148,45.203 z"
inkscape:connector-curvature="0"
style="fill:#000000" /><path
id="path4027"
d="m 43.942,12.562 h 2.116 c 16.426,0 29.872,13.84 30.607,31.146 l 5.484,1.496 C 82.149,24.199 65.961,7.111 46.057,7.111 h -2.116 -0.03 C 24.01,7.111 7.82,24.199 7.82,45.204 l 5.484,-1.496 C 14.039,26.402 27.485,12.562 43.91,12.562 h 0.032 z"
inkscape:connector-curvature="0"
style="fill:#000000" /><path
id="path4029"
d="m 13.304,43.716 c 1.659,-0.281 3.379,-0.436 5.148,-0.436 1.637,0 2.964,1.328 2.964,2.963 v 33.683 c 0,1.635 -1.327,2.964 -2.964,2.964 -1.769,0 -3.489,-0.154 -5.148,-0.436 V 43.716 z"
inkscape:connector-curvature="0"
style="fill:#000000" /><path
id="path4031"
d="M 7.853,45.203 V 80.967 C 0.234,78.035 -5,72.051 -5,65.157 V 61.011 C -5,54.119 0.234,48.134 7.853,45.203 z"
inkscape:connector-curvature="0"
style="fill:#000000" /></g></g></svg> 
