<svg xmlns="http://www.w3.org/2000/svg" xmlns:xlink="http://www.w3.org/1999/xlink" version="1.1" id="Layer_1" x="0px" y="0px" width="100px" height="100px" viewBox="0 0 100 100" enable-background="new 0 0 100 100" xml:spaaace="preserve">
<path d="M91.08,53.33c-0.33-0.95-0.521-2.41-0.521-3.9c0-1.5,0.19-2.96,0.521-3.91l2.13-6.14c1.34-3.88,1.04-9.4-2.12-12.45 c-1.38-1.33-3.27-2.05-5.31-2.05c-2.65,0-5.37,1.17-7.48,3.22l-5.31,5.11c-7.351-5.07-17.561-8.55-25.65-8.55 c-28.89,0-40.58,21.9-41.06,22.84l-1,1.93l1,1.93c0.479,0.93,12.17,22.83,41.06,22.83c8.09,0,18.3-3.48,25.65-8.55l5.319,5.12 c2.101,2.04,4.82,3.21,7.471,3.21c2.04,0,3.93-0.72,5.3-2.03c3.17-3.06,3.47-8.59,2.13-12.46L91.08,53.33z M87.12,54.7l2.13,6.14 c1,2.91,0.52,6.54-1.07,8.07c-0.62,0.59-1.47,0.87-2.399,0.87c-1.49,0-3.2-0.7-4.57-2.03l-7.9-7.63C66.41,66.05,55.06,70,47.34,70 C20.67,70,10,49.43,10,49.43s10.67-20.58,37.34-20.58c7.72,0,19.07,3.95,25.97,9.88l7.9-7.63c1.37-1.32,3.08-2.03,4.57-2.03 c0.93,0,1.779,0.28,2.399,0.87c1.59,1.54,2.07,5.17,1.07,8.07l-2.13,6.14c-0.5,1.45-0.75,3.36-0.75,5.28 C86.37,51.34,86.62,53.25,87.12,54.7z"/>
<path d="M35.75,36.88c-6.92,0-12.55,5.63-12.55,12.55c0,6.91,5.63,12.54,12.55,12.54c6.91,0,12.54-5.63,12.54-12.54 C48.29,42.51,42.66,36.88,35.75,36.88z M35.75,57.97c-4.72,0-8.55-3.83-8.55-8.54c0-4.72,3.83-8.55,8.55-8.55 c4.71,0,8.54,3.83,8.54,8.55C44.29,54.14,40.46,57.97,35.75,57.97z"/>
<path d="M40.05,49.43c0,2.37-1.93,4.3-4.3,4.3c-2.38,0-4.31-1.93-4.31-4.3c0-2.38,1.93-4.3,4.31-4.3 C38.12,45.13,40.05,47.05,40.05,49.43z"/>
</svg> 
