<?xml version="1.0" encoding="UTF-8" standalone="no"?>
<!-- Generator: Adobe Illustrator 17.0.1, SVG Export Plug-In . SVG Version: 6.00 Build 0) -->
 
<svg
xmlns:dc="http://purl.org/dc/elements/1.1/"
xmlns:cc="http://creativecommons.org/ns#"
xmlns:rdf="http://www.w3.org/1999/02/22-rdf-syntax-ns#"
xmlns:svg="http://www.w3.org/2000/svg"
xmlns="http://www.w3.org/2000/svg"
xmlns:xlink="http://www.w3.org/1999/xlink"
xmlns:sodipodi="http://sodipodi.sourceforge.net/DTD/sodipodi-0.dtd"
xmlns:inkscape="http://www.inkscape.org/namespaces/inkscape"
version="1.1"
x="0px"
y="0px"
width="86px"
height="86px"
viewBox="0 0 86 86"
enable-background="new 0 0 86 86"
xml:space="preserve"
id="svg3066"
inkscape:version="0.48.5 r10040"
sodipodi:docname="sound-for-fish_II.svg"
inkscape:export-filename="/home/julius/Downloads/gist/8a9e2c6895bd587b059c/sound-for-fish.png"
inkscape:export-xdpi="90"
inkscape:export-ydpi="90"><metadata
id="metadata3126"><rdf:RDF><cc:Work
rdf:about=""><dc:format>image/svg+xml</dc:format><dc:type
rdf:resource="http://purl.org/dc/dcmitype/StillImage" /><dc:title></dc:title></cc:Work></rdf:RDF></metadata><defs
id="defs3124"><radialGradient
inkscape:collect="always"
xlink:href="#SVGID_2_"
id="radialGradient3896"
gradientUnits="userSpaceOnUse"
gradientTransform="matrix(0,0.953,-0.9513,0,374.8925,-416.2066)"
cx="481.8537"
cy="348.97711"
r="44.790298" /></defs><sodipodi:namedview
pagecolor="#ffffff"
bordercolor="#666666"
borderopacity="1"
objecttolerance="10"
gridtolerance="10"
guidetolerance="10"
inkscape:pageopacity="0"
inkscape:pageshadow="2"
inkscape:window-width="1080"
inkscape:window-height="1056"
id="namedview3122"
showgrid="false"
inkscape:zoom="5.0639535"
inkscape:cx="36.901536"
inkscape:cy="54.180707"
inkscape:window-x="0"
inkscape:window-y="22"
inkscape:window-maximized="0"
inkscape:current-layer="Layer_1" /><g
id="Layer_2"
display="none" /><g
id="Layer_1"><radialGradient
id="SVGID_1_"
cx="481.8537"
cy="348.9771"
r="44.7903"
gradientTransform="matrix(0 0.953 -0.9513 0 374.8925 -416.2066)"
gradientUnits="userSpaceOnUse"><stop
offset="0"
style="stop-color:#ff5f1a;stop-opacity:0;"
id="stop3071" /><stop
offset="1"
style="stop-color:#ff5f1a;stop-opacity:1;"
id="stop3073" /></radialGradient><path
fill="url(#SVGID_1_)"
d="M85.521,84.261V43c0-23.574-19.078-42.683-42.611-42.683H1.72c-0.784,0-1.42,0.637-1.42,1.423V43 c0,23.574,19.078,42.684,42.611,42.684h41.19C84.885,85.684,85.521,85.046,85.521,84.261z"
id="path3075"
style="fill-opacity:1.0;fill:url(#radialGradient3896)" /><g
opacity="0.6"
id="g3077" /><g
opacity="0.5"
id="g3095" /><linearGradient
id="SVGID_2_"
gradientUnits="userSpaceOnUse"
x1="28.1058"
y1="27.843"
x2="57.9244"
y2="57.6616"><stop
offset="0"
style="stop-color:#ff5f1a;stop-opacity:0.47368422;"
id="stop3114" /><stop
offset="1"
style="stop-color:#ff5f1a;stop-opacity:1;"
id="stop3116" /></linearGradient><g
id="g4209"
transform="matrix(0.84220263,0,0,0.84220263,-11.331771,-33.192665)"><path
sodipodi:nodetypes="scsccccsss"
id="path3326"
d="m 95.85145,87.78283 c -1.567,0 -3.062,0.317 -4.424,0.888 -0.91,-10.308 -9.554,-18.394 -20.098,-18.394 -2.58,0 -5.095,0.508 -7.316,1.367 -0.863,0.334 -1.093,0.678 -1.101,1.345 l 0,36.3 c 0.009,0.7 0.552,1.283 1.235,1.352 0.029,0.003 31.499,0.019 31.703,0.019 6.316,0 11.437,-5.121 11.437,-11.438 0,-6.317 -5.12,-11.439 -11.436,-11.439 z"
style="fill:#000000;fill-opacity:1"
inkscape:connector-curvature="0" /><g
transform="matrix(0.68005245,0,0,0.68005245,18.144912,57.572753)"
id="g4174"><path
inkscape:connector-curvature="0"
d="m 91.08,53.33 c -0.33,-0.95 -0.521,-2.41 -0.521,-3.9 0,-1.5 0.19,-2.96 0.521,-3.91 l 2.13,-6.14 c 1.34,-3.88 1.04,-9.4 -2.12,-12.45 -1.38,-1.33 -3.27,-2.05 -5.31,-2.05 -2.65,0 -5.37,1.17 -7.48,3.22 l -5.31,5.11 C 65.639,28.14 55.429,24.66 47.34,24.66 18.45,24.66 6.76,46.56 6.28,47.5 l -1,1.93 1,1.93 c 0.479,0.93 12.17,22.83 41.06,22.83 8.09,0 18.3,-3.48 25.65,-8.55 l 5.319,5.12 c 2.101,2.04 4.82,3.21 7.471,3.21 2.04,0 3.93,-0.72 5.3,-2.03 3.17,-3.06 3.47,-8.59 2.13,-12.46 l -2.13,-6.15 z m -3.96,1.37 2.13,6.14 c 1,2.91 0.52,6.54 -1.07,8.07 -0.62,0.59 -1.47,0.87 -2.399,0.87 -1.49,0 -3.2,-0.7 -4.57,-2.03 l -7.9,-7.63 C 66.41,66.05 55.06,70 47.34,70 20.67,70 10,49.43 10,49.43 c 0,0 10.67,-20.58 37.34,-20.58 7.72,0 19.07,3.95 25.97,9.88 l 7.9,-7.63 c 1.37,-1.32 3.08,-2.03 4.57,-2.03 0.93,0 1.779,0.28 2.399,0.87 1.59,1.54 2.07,5.17 1.07,8.07 l -2.13,6.14 c -0.5,1.45 -0.75,3.36 -0.75,5.28 0.001,1.91 0.251,3.82 0.751,5.27 z"
id="path4162" /><path
inkscape:connector-curvature="0"
d="m 35.75,36.88 c -6.92,0 -12.55,5.63 -12.55,12.55 0,6.91 5.63,12.54 12.55,12.54 6.91,0 12.54,-5.63 12.54,-12.54 0,-6.92 -5.63,-12.55 -12.54,-12.55 z m 0,21.09 c -4.72,0 -8.55,-3.83 -8.55,-8.54 0,-4.72 3.83,-8.55 8.55,-8.55 4.71,0 8.54,3.83 8.54,8.55 0,4.71 -3.83,8.54 -8.54,8.54 z"
id="path4164" /><path
inkscape:connector-curvature="0"
d="m 40.05,49.43 c 0,2.37 -1.93,4.3 -4.3,4.3 -2.38,0 -4.31,-1.93 -4.31,-4.3 0,-2.38 1.93,-4.3 4.31,-4.3 2.37,0 4.3,1.92 4.3,4.3 z"
id="path4166" /></g></g></g></svg> 
